<svg width="224" height="32" viewBox="0 0 224 32" fill="none" xmlns="http://www.w3.org/2000/svg">
<path d="M103.703 2.51596V24.9998H101.497V4.43017H89.5246V24.9998H87.3184V2.51596H103.703Z" fill="black"/>
<path d="M124.648 24.9998C124.237 23.8967 123.847 22.8369 123.48 21.8203C123.112 20.8037 122.755 19.8088 122.409 18.8354H111.475C111.108 19.8088 110.74 20.8037 110.372 21.8203C110.005 22.8369 109.626 23.8967 109.237 24.9998H106.933C107.798 22.6639 108.609 20.4901 109.367 18.4785C110.124 16.4454 110.859 14.5312 111.573 12.7359C112.308 10.919 113.033 9.17785 113.747 7.51237C114.46 5.8469 115.217 4.18143 116.018 2.51596H117.964C118.765 4.18143 119.522 5.8469 120.235 7.51237C120.949 9.17785 121.663 10.919 122.377 12.7359C123.112 14.5312 123.858 16.4454 124.615 18.4785C125.372 20.4901 126.194 22.6639 127.081 24.9998H124.648ZM116.926 5.04661C116.104 6.90675 115.304 8.79933 114.525 10.7244C113.768 12.6494 112.979 14.7258 112.157 16.9537H121.728C120.906 14.7258 120.106 12.6494 119.327 10.7244C118.548 8.79933 117.748 6.90675 116.926 5.04661Z" fill="black"/>
<path d="M135.991 2.32129C139.171 2.32129 141.539 2.92692 143.096 4.13817C144.654 5.34942 145.432 7.06897 145.432 9.29681C145.432 10.573 145.205 11.6652 144.751 12.5737C144.297 13.4605 143.648 14.1851 142.804 14.7474C141.961 15.2882 140.923 15.6883 139.69 15.9479C138.479 16.1858 137.105 16.3048 135.569 16.3048H132.52V24.9998H130.313V2.93773C131.092 2.72144 132 2.57003 133.039 2.48351C134.099 2.37536 135.083 2.32129 135.991 2.32129ZM136.088 4.2355C135.267 4.2355 134.564 4.26795 133.98 4.33284C133.417 4.37609 132.931 4.41935 132.52 4.46261V14.3906H135.31C136.499 14.3906 137.57 14.3257 138.522 14.1959C139.495 14.0445 140.317 13.7849 140.988 13.4172C141.68 13.0279 142.21 12.498 142.577 11.8275C142.945 11.1569 143.129 10.3026 143.129 9.26437C143.129 8.26941 142.923 7.44748 142.512 6.7986C142.123 6.14971 141.593 5.64142 140.923 5.27372C140.274 4.88439 139.528 4.61402 138.684 4.46261C137.84 4.31121 136.975 4.2355 136.088 4.2355Z" fill="black"/>
<path d="M163.789 2.51596V4.43017H156.587V24.9998H154.38V4.43017H147.178V2.51596H163.789Z" fill="black"/>
<path d="M181.694 2.51596H183.9V24.9998H181.694V14.1959H169.495V24.9998H167.288V2.51596H169.495V12.2817H181.694V2.51596Z" fill="black"/>
<path d="M189.752 24.9998V2.51596H202.73V4.43017H191.958V12.2492H201.562V14.131H191.958V23.0856H203.574V24.9998H189.752Z" fill="black"/>
<path d="M213.426 2.32129C216.606 2.32129 218.974 2.92692 220.532 4.13817C222.089 5.34942 222.868 7.06897 222.868 9.29681C222.868 10.573 222.641 11.6652 222.186 12.5737C221.732 13.4605 221.083 14.1851 220.24 14.7474C219.396 15.2882 218.358 15.6883 217.125 15.9479C215.914 16.1858 214.54 16.3048 213.005 16.3048H209.955V24.9998H207.749V2.93773C208.527 2.72144 209.436 2.57003 210.474 2.48351C211.534 2.37536 212.518 2.32129 213.426 2.32129ZM213.524 4.2355C212.702 4.2355 211.999 4.26795 211.415 4.33284C210.853 4.37609 210.366 4.41935 209.955 4.46261V14.3906H212.745C213.935 14.3906 215.005 14.3257 215.957 14.1959C216.93 14.0445 217.752 13.7849 218.423 13.4172C219.115 13.0279 219.645 12.498 220.013 11.8275C220.38 11.1569 220.564 10.3026 220.564 9.26437C220.564 8.26941 220.359 7.44748 219.948 6.7986C219.558 6.14971 219.029 5.64142 218.358 5.27372C217.709 4.88439 216.963 4.61402 216.119 4.46261C215.276 4.31121 214.411 4.2355 213.524 4.2355Z" fill="black"/>
<path d="M48.8892 18.6709V1.78027H31.1169V6.75803C31.1169 7.8247 31.1169 10.8469 30.5835 13.2469C30.3169 14.3136 29.428 17.158 28.3613 18.6691H26.4004L23.6484 23.9989H51.5559V18.6718H48.8892V18.6709ZM35.8226 13.6913C36.3559 11.4691 36.4448 9.24691 36.4448 7.0967H43.5559V18.6691H34.3115C35.0226 16.8913 35.4671 15.4691 35.8226 13.6913Z" fill="#1E1E1E"/>
<path d="M15.9999 1.77832V18.6671H5.32442V1.77832H0V24.0005H21.3306V1.77832H15.9999Z" fill="#1E1E1E"/>
<path d="M64.7127 19.3773C61.246 19.3773 58.4016 16.5329 58.4016 13.0662C58.4016 9.59956 61.246 6.75512 64.7127 6.75512C66.5794 6.75512 68.1793 7.55512 69.3349 8.79956L71.7349 4.17736C69.7793 2.66625 67.3794 1.68848 64.7127 1.68848C58.4905 1.68848 53.335 6.75512 53.335 13.0662C53.335 19.3773 58.4016 24.4439 64.7127 24.4439C68.446 24.4439 71.8238 22.5773 73.8682 19.7329L69.7793 16.7995C68.7127 18.3106 66.846 19.3773 64.7127 19.3773Z" fill="#1E1E1E"/>
<path d="M18.0834 32.0003H8.71191L15.7341 18.667H25.1056L18.0834 32.0003Z" fill="#ED2D23"/>
<path d="M76.3753 13.3333H67.0029L74.0251 0H83.3975L76.3753 13.3333Z" fill="#00ADEF"/>
</svg>
